ply
format ascii 1.0
comment Created by Blender 2.83.5 - www.blender.org, source file: ''
element vertex 4
property float x
property float y
property float z
property float nx
property float ny
property float nz
property float s
property float t
element face 1
property list uchar uint vertex_indices
end_header
-0.671947 0.000000 0.035268 0.000000 1.000000 -0.000000 0.000000 0.000000
0.671947 0.000000 0.035268 0.000000 1.000000 -0.000000 1.000000 0.000000
0.671947 -0.000000 -3.079154 0.000000 1.000000 -0.000000 1.000000 1.000000
-0.671947 -0.000000 -3.079154 0.000000 1.000000 -0.000000 0.000000 1.000000
4 0 1 2 3
